<?xml version="1.0" encoding="UTF-8"?>
<svg xmlns="http://www.w3.org/2000/svg" xmlns:xlink="http://www.w3.org/1999/xlink" xmlns:svgjs="http://svgjs.com/svgjs" version="1.1" width="512" height="512" x="0" y="0" viewBox="0 0 60 60" style="enable-background:new 0 0 512 512" xml:space="preserve" class="">
  <rect width="60" height="60" rx="20" ry="20" fill="#94ebff" shape="rounded" transform="matrix(0.9,0,0,0.9,3,3)"/>
  <g transform="matrix(0.7,0,0,0.7,8.999999187234792,9.150000572204608)">
    <path xmlns="http://www.w3.org/2000/svg" d="m58.78 1c-12.95 0-16.5 6.54-17.44 9.53a26.679 26.679 0 0 0 -22.68 0c-.94-2.99-4.49-9.53-17.44-9.53 0 0-1.75 19.53 4.65 22.62a22.337 22.337 0 0 0 -1.85 8.87c0 8.62 5.08 16.15 12.66 20.28 2.17 3.07 7.32 5.23 13.32 5.23s11.15-2.16 13.32-5.23c7.58-4.13 12.66-11.66 12.66-20.28a22.337 22.337 0 0 0 -1.85-8.87c6.4-3.09 4.65-22.62 4.65-22.62z" fill="#fdcf77" data-original="#cb8252" style="" class=""/>
    <g xmlns="http://www.w3.org/2000/svg" fill="#7f6e5d">
      <path d="m5 60a1 1 0 0 1 -1-1c0-5.452 1.425-9.533 4.236-12.129a11.1 11.1 0 0 1 7.843-2.871 1 1 0 0 1 -.155 2 9.243 9.243 0 0 0 -6.354 2.361c-2.37 2.204-3.57 5.784-3.57 10.639a1 1 0 0 1 -1 1z" fill="#000000" data-original="#7f6e5d" style="" class=""/>
      <path d="m1 51a1 1 0 0 1 -1-1 9.132 9.132 0 0 1 3.167-7.367c5.127-4.3 14.606-2.689 15.007-2.618a1 1 0 0 1 -.347 1.97c-.089-.014-8.968-1.521-13.378 2.183a7.133 7.133 0 0 0 -2.449 5.832 1 1 0 0 1 -1 1z" fill="#000000" data-original="#7f6e5d" style="" class=""/>
      <path d="m19 38a1.03 1.03 0 0 1 -.226-.025c-3.507-.809-13.446-2.407-17.26-.118a1 1 0 0 1 -1.03-1.714c5.287-3.171 18.193-.244 18.74-.118a1 1 0 0 1 -.224 1.975z" fill="#000000" data-original="#7f6e5d" style="" class=""/>
      <path d="m55 60a1 1 0 0 1 -1-1c0-4.872-1.208-8.458-3.593-10.66a9.121 9.121 0 0 0 -6.328-2.34 1 1 0 0 1 -.158-2 11.117 11.117 0 0 1 7.843 2.87c2.811 2.597 4.236 6.678 4.236 12.13a1 1 0 0 1 -1 1z" fill="#000000" data-original="#7f6e5d" style="" class=""/>
      <path d="m59 51a1 1 0 0 1 -1-1 7.133 7.133 0 0 0 -2.449-5.832c-4.41-3.7-13.29-2.2-13.378-2.183a1 1 0 0 1 -.347-1.97c.4-.071 9.879-1.683 15.007 2.618a9.132 9.132 0 0 1 3.167 7.367 1 1 0 0 1 -1 1z" fill="#000000" data-original="#7f6e5d" style="" class=""/>
      <path d="m41 38a1 1 0 0 1 -.224-1.975c.547-.127 13.453-3.056 18.74.118a1 1 0 0 1 -1.03 1.714c-3.814-2.288-13.753-.691-17.26.118a1.03 1.03 0 0 1 -.226.025z" fill="#000000" data-original="#7f6e5d" style="" class=""/>
      <path d="m40.093 43a1 1 0 0 0 -1.175.788 4 4 0 0 1 -3.918 3.212 3.931 3.931 0 0 1 -2.4-.8 4.029 4.029 0 0 1 -1.6-3.2 1 1 0 0 0 -2 0 4 4 0 0 1 -7.923.786 1 1 0 0 0 -1.962.39 6 6 0 0 0 10.885 2.132 5.975 5.975 0 0 0 1.4 1.492 5.9 5.9 0 0 0 3.6 1.2 6 6 0 0 0 5.881-4.827 1 1 0 0 0 -.788-1.173z" fill="#000000" data-original="#7f6e5d" style="" class=""/>
      <path d="m19.543 23.88a.978.978 0 0 0 .455.112 1.014 1.014 0 0 0 .89-.532 3.4 3.4 0 0 1 3.112-1.46 1 1 0 0 0 0-2 5.319 5.319 0 0 0 -4.895 2.553.993.993 0 0 0 .438 1.327z" fill="#000000" data-original="#7f6e5d" style="" class=""/>
      <path d="m36 22a3.4 3.4 0 0 1 3.111 1.458 1 1 0 0 0 1.784-.9 5.319 5.319 0 0 0 -4.895-2.558 1 1 0 0 0 0 2z" fill="#000000" data-original="#7f6e5d" style="" class=""/>
    </g>
    <path xmlns="http://www.w3.org/2000/svg" d="m52.62 19.83c-.2.21-.25.21-.33.21h-.05a25.876 25.876 0 0 0 -7.28-7.43l.02-.25c.09-.61 1.08-5.94 10.03-7.13.13 6.17-.62 12.66-2.39 14.6z" fill="#8f784b" data-original="#fdd7ad" style="" class=""/>
    <path xmlns="http://www.w3.org/2000/svg" d="m15.04 12.61a25.876 25.876 0 0 0 -7.28 7.43h-.05c-.08 0-.13 0-.33-.21-1.77-1.94-2.52-8.43-2.39-14.6 8.95 1.19 9.94 6.52 10.03 7.13z" fill="#8f784b" data-original="#fdd7ad" style="" class=""/>
    <circle xmlns="http://www.w3.org/2000/svg" cx="36" cy="30" fill="#000000" r="3" data-original="#35495e" style="" class=""/>
    <circle xmlns="http://www.w3.org/2000/svg" cx="24" cy="30" fill="#000000" r="3" data-original="#35495e" style="" class=""/>
    <path xmlns="http://www.w3.org/2000/svg" d="m35 39.276c0 1.6-2.239 3.724-5 3.724s-5-2.124-5-3.724c0-1.276 2.239-1.276 5-1.276s5 0 5 1.276z" fill="#000000" data-original="#35495e" style="" class=""/>
    <circle xmlns="http://www.w3.org/2000/svg" cx="23" cy="29" fill="#7a7a7a" r="1" data-original="#ecf0f1" style="" class=""/>
    <circle xmlns="http://www.w3.org/2000/svg" cx="35" cy="29" fill="#7a7a7a" r="1" data-original="#ecf0f1" style="" class=""/>
    <path xmlns="http://www.w3.org/2000/svg" d="m54.13 23.62a23.088 23.088 0 0 0 -1.89-3.58h.05c.08 0 .13 0 .33-.21 1.77-1.94 2.52-8.43 2.39-14.6-8.95 1.19-9.94 6.52-10.03 7.13l-.02.25a25.359 25.359 0 0 0 -3.62-2.08c.94-2.99 4.49-9.53 17.44-9.53 0 0 1.75 19.53-4.65 22.62z" fill="#fdcf77" data-original="#a56a43" style="" class=""/>
    <path xmlns="http://www.w3.org/2000/svg" d="m18.66 10.53a25.359 25.359 0 0 0 -3.62 2.08l-.02-.25c-.09-.61-1.08-5.94-10.03-7.13-.13 6.17.62 12.66 2.39 14.6.2.21.25.21.33.21h.05a23.088 23.088 0 0 0 -1.89 3.58c-6.4-3.09-4.65-22.62-4.65-22.62 12.95 0 16.5 6.54 17.44 9.53z" fill="#fdcf77" data-original="#a56a43" style="" class=""/>
  </g>
</svg>
