<?xml version="1.0" standalone="no"?>
<!DOCTYPE svg PUBLIC "-//W3C//DTD SVG 20010904//EN"
 "http://www.w3.org/TR/2001/REC-SVG-20010904/DTD/svg10.dtd">
<svg version="1.0" xmlns="http://www.w3.org/2000/svg"
 width="700.000000pt" height="700.000000pt" viewBox="0 0 700.000000 700.000000"
 preserveAspectRatio="xMidYMid meet">
<metadata>
Created by potrace 1.14, written by Peter Selinger 2001-2017
</metadata>
<g transform="translate(0.000000,700.000000) scale(0.100000,-0.100000)"
fill="#000000" stroke="none">
<path d="M1460 5338 c0 -373 52 -743 129 -913 35 -77 68 -125 85 -125 6 0 44
44 84 99 120 166 312 354 497 486 l28 21 -21 71 c-41 133 -161 280 -295 361
-119 72 -313 139 -457 158 l-50 7 0 -165z"/>
<path d="M5385 5475 c-340 -78 -578 -264 -649 -504 -9 -30 -16 -58 -16 -62 0
-4 39 -35 88 -70 118 -85 341 -311 432 -436 41 -57 80 -103 86 -103 7 0 22 13
34 30 108 152 180 553 180 1006 l0 164 -27 -1 c-16 0 -73 -11 -128 -24z"/>
<path d="M2840 4277 c-153 -52 -279 -200 -227 -268 16 -21 51 -39 77 -39 13 0
47 26 85 64 70 70 125 96 202 96 49 0 97 21 107 45 15 39 6 83 -20 104 -37 29
-136 28 -224 -2z"/>
<path d="M3936 4279 c-26 -21 -35 -65 -20 -104 10 -24 58 -45 107 -45 77 0
132 -26 202 -96 74 -74 100 -80 146 -35 39 39 37 72 -7 132 -74 101 -210 169
-339 169 -48 0 -68 -5 -89 -21z"/>
<path d="M2926 3716 c-100 -37 -161 -127 -161 -236 2 -211 251 -323 407 -182
165 149 76 414 -145 428 -39 3 -76 -1 -101 -10z"/>
<path d="M3906 3716 c-100 -37 -161 -127 -161 -236 2 -211 251 -323 407 -182
165 149 76 414 -145 428 -39 3 -76 -1 -101 -10z"/>
<path d="M1405 3085 c-163 -26 -307 -80 -339 -127 -23 -33 -20 -75 9 -103 31
-32 72 -32 135 0 28 14 89 35 138 48 80 20 110 22 367 22 301 -1 452 -15 731
-70 71 -14 143 -25 160 -25 34 0 71 29 80 64 8 33 -19 81 -53 94 -38 15 -273
58 -458 83 -201 27 -638 35 -770 14z"/>
<path d="M5025 3093 c-202 -18 -600 -81 -658 -105 -34 -13 -61 -61 -53 -94 9
-35 46 -64 80 -64 17 0 89 11 160 25 273 54 431 69 721 70 302 0 385 -11 504
-66 78 -36 114 -37 146 -4 29 28 32 70 9 103 -34 49 -180 102 -349 127 -92 14
-441 19 -560 8z"/>
<path d="M3230 2823 c-128 -23 -165 -73 -125 -169 36 -86 144 -177 251 -211
54 -17 54 -17 54 -57 0 -53 -41 -141 -88 -189 -87 -91 -227 -122 -347 -76 -77
29 -154 104 -179 174 -10 28 -23 63 -29 79 -13 35 -65 60 -99 47 -13 -5 -31
-18 -42 -30 -46 -51 14 -212 118 -315 99 -99 211 -146 346 -146 134 0 247 47
347 144 l64 63 55 -57 c150 -158 395 -196 588 -92 118 63 229 215 243 332 6
55 -9 84 -55 101 -34 13 -86 -12 -99 -47 -6 -16 -19 -51 -29 -79 -25 -70 -102
-145 -179 -174 -120 -46 -260 -15 -347 76 -47 48 -88 136 -88 189 0 40 0 40
54 57 69 22 166 87 206 137 62 79 78 160 38 197 -47 42 -80 47 -363 49 -148 1
-281 0 -295 -3z"/>
<path d="M1973 2689 c-204 -17 -400 -71 -540 -150 -96 -54 -232 -187 -286
-279 -60 -103 -89 -207 -94 -335 -5 -106 -4 -111 18 -132 28 -25 53 -30 92
-20 37 10 57 58 57 138 0 155 79 314 210 422 97 81 284 150 480 178 113 16
388 15 523 -1 103 -12 109 -12 135 7 38 28 43 93 10 126 -27 27 -54 32 -249
47 -142 11 -212 11 -356 -1z"/>
<path d="M4700 2693 c-112 -8 -246 -26 -263 -35 -29 -15 -47 -66 -35 -100 19
-54 45 -62 166 -50 338 35 600 13 810 -68 250 -96 402 -298 402 -534 0 -79 19
-123 58 -133 38 -10 63 -4 91 20 22 21 23 26 18 132 -8 198 -71 339 -217 485
-96 96 -192 156 -324 201 -195 67 -469 99 -706 82z"/>
<path d="M2150 2324 c-338 -72 -591 -311 -700 -662 -49 -155 -92 -484 -75
-563 14 -63 95 -90 139 -46 21 21 24 36 31 148 17 292 78 508 189 662 129 182
330 292 550 305 85 4 102 8 127 29 38 32 40 83 4 118 -22 23 -31 25 -112 24
-48 0 -117 -7 -153 -15z"/>
<path d="M4586 2317 c-37 -37 -36 -87 3 -120 25 -21 42 -25 127 -30 172 -9
323 -72 447 -186 180 -166 271 -409 292 -780 7 -112 10 -127 31 -148 30 -30
75 -30 111 1 l28 24 -3 119 c-11 512 -209 885 -557 1053 -116 56 -212 81 -342
87 -110 6 -112 5 -137 -20z"/>
</g>
</svg>
